<svg xmlns="http://www.w3.org/2000/svg" width="512" height="640" viewBox="0 0 231 289">
  <defs>
    <clipPath id="shapeClip">
      <path d="M230.809 115.385V249.411C230.809 269.923 214.985 287.282 194.495 288.411C184.544 288.949 175.364 285.718 168.26 280C159.746 273.154 147.769 273.461 139.178 280.23C132.638 285.384 124.381 288.462 115.379 288.462C106.377 288.462 98.1451 285.384 91.6055 280.23C82.912 273.385 70.9353 273.385 62.2415 280.23C55.7532 285.334 47.598 288.411 38.7246 288.462C17.4132 288.615 0 270.667 0 249.359V115.385C0 51.6667 51.6756 0 115.404 0C179.134 0 230.809 51.6667 230.809 115.385Z" />
    </clipPath>
  </defs>

  <!-- Ghost body with green gradient -->
  <g clip-path="url(#shapeClip)">
    <defs>
      <linearGradient id="ghostGradient" x1="0%" y1="0%" x2="100%" y2="100%">
        <stop offset="0%" style="stop-color:#1ED760;stop-opacity:1" />
        <stop offset="50%" style="stop-color:#1DB954;stop-opacity:1" />
        <stop offset="100%" style="stop-color:#1AA34A;stop-opacity:1" />
      </linearGradient>
    </defs>
    <rect width="231" height="289" fill="url(#ghostGradient)" />
  </g>

  <!-- Eyes -->
  <ellipse cx="80" cy="120" rx="20" ry="30" fill="#191414" />
  <ellipse cx="150" cy="120" rx="20" ry="30" fill="#191414" />
</svg>
